<svg width="120" height="120" fill="none" xmlns="http://www.w3.org/2000/svg"><circle cx="60" cy="60" r="58.5" stroke="#FAE100" stroke-width="3"/><path d="m58.698 45.625-5.365 6.707-5.365-6.707A1.67 1.67 0 0 0 45 46.667v25A3.337 3.337 0 0 0 48.333 75h23.334A3.337 3.337 0 0 0 75 71.667v-25a1.67 1.67 0 0 0-2.968-1.042l-5.365 6.707-5.365-6.707c-.635-.79-1.969-.79-2.604 0ZM48.333 71.667v-3.334h23.335v3.334H48.333Zm17.032-15.625c.635.791 1.97.791 2.605 0l3.697-4.624L71.668 65H48.333V51.418l3.699 4.624c.635.791 1.97.791 2.605 0L60 49.335l5.365 6.707Z" fill="#FAE100"/></svg>