<svg width="562" height="230" fill="none" xmlns="http://www.w3.org/2000/svg"><path d="M60.39 30.21c-.36 0-.65-.09-.87-.27-.22-.2-.4-.49-.54-.87l-6.63-18.93c-.14-.42-.11-.77.09-1.05.22-.3.56-.45 1.02-.45.34 0 .61.09.81.27.2.16.37.42.51.78l6.21 18.21h-1.05l6.33-18.12c.14-.38.31-.66.51-.84.2-.2.47-.3.81-.3.32 0 .57.1.75.3.2.18.37.46.51.84l6.24 18.12h-.93l6.27-18.21c.1-.34.25-.6.45-.78.22-.18.5-.27.84-.27.42 0 .73.14.93.42.2.28.22.64.06 1.08l-6.66 18.93c-.14.38-.32.67-.54.87-.2.18-.49.27-.87.27-.36 0-.65-.09-.87-.27-.2-.2-.38-.49-.54-.87L67.2 11.7h.66l-6.09 17.37c-.14.38-.31.67-.51.87-.2.18-.49.27-.87.27Zm30.21.06c-1.42 0-2.65-.31-3.69-.93-1.04-.62-1.85-1.49-2.43-2.61-.56-1.14-.84-2.48-.84-4.02 0-1.16.16-2.2.48-3.12.32-.94.79-1.74 1.41-2.4.62-.66 1.35-1.16 2.19-1.5.86-.36 1.82-.54 2.88-.54 1.42 0 2.65.31 3.69.93 1.04.62 1.84 1.5 2.4 2.64.58 1.12.87 2.45.87 3.99 0 1.16-.16 2.2-.48 3.12-.32.92-.79 1.72-1.41 2.4-.62.66-1.36 1.17-2.22 1.53-.84.34-1.79.51-2.85.51Zm0-1.95c.9 0 1.69-.22 2.37-.66.68-.44 1.2-1.08 1.56-1.92.38-.84.57-1.85.57-3.03 0-1.82-.41-3.21-1.23-4.17-.8-.96-1.89-1.44-3.27-1.44-.92 0-1.72.22-2.4.66-.66.42-1.18 1.05-1.56 1.89-.36.82-.54 1.84-.54 3.06 0 1.8.41 3.19 1.23 4.17.82.96 1.91 1.44 3.27 1.44Zm11.84 1.89c-.4 0-.71-.11-.93-.33-.2-.22-.3-.53-.3-.93V16.44c0-.4.1-.7.3-.9.2-.22.49-.33.87-.33s.67.11.87.33c.22.2.33.5.33.9v2.43h-.3c.32-1.18.93-2.09 1.83-2.73.9-.64 2.01-.98 3.33-1.02.3-.02.54.05.72.21.18.14.28.39.3.75.02.34-.06.61-.24.81-.18.2-.46.32-.84.36l-.48.06c-1.36.12-2.41.56-3.15 1.32-.72.74-1.08 1.76-1.08 3.06v7.26c0 .4-.11.71-.33.93-.2.22-.5.33-.9.33Zm10.722 0c-.4 0-.7-.11-.9-.33-.2-.22-.3-.53-.3-.93V9.87c0-.4.1-.7.3-.9.2-.22.5-.33.9-.33.38 0 .68.11.9.33.22.2.33.5.33.9V21.9h.06l6.15-5.88c.28-.26.52-.46.72-.6.22-.14.51-.21.87-.21.32 0 .57.09.75.27.18.16.26.37.24.63 0 .24-.12.5-.36.78l-6.54 6.21v-1.32l7.11 6.69c.28.28.42.55.42.81s-.1.48-.3.66c-.18.18-.42.27-.72.27-.36 0-.65-.07-.87-.21-.22-.16-.49-.39-.81-.69l-6.66-6.15h-.06v5.79c0 .84-.41 1.26-1.23 1.26Zm19.989.06c-1.54 0-2.87-.3-3.99-.9a6.61 6.61 0 0 1-2.58-2.61c-.6-1.12-.9-2.46-.9-4.02 0-1.52.3-2.84.9-3.96.6-1.14 1.42-2.03 2.46-2.67 1.06-.64 2.28-.96 3.66-.96.98 0 1.86.17 2.64.51.78.32 1.44.79 1.98 1.41.56.62.98 1.37 1.26 2.25.3.88.45 1.87.45 2.97 0 .32-.09.56-.27.72-.18.14-.44.21-.78.21h-10.44v-1.59h9.87l-.48.39c0-1.08-.16-1.99-.48-2.73-.32-.76-.79-1.34-1.41-1.74-.6-.4-1.36-.6-2.28-.6-1.02 0-1.89.24-2.61.72-.7.46-1.23 1.11-1.59 1.95-.36.82-.54 1.78-.54 2.88v.18c0 1.84.44 3.24 1.32 4.2.9.96 2.17 1.44 3.81 1.44.68 0 1.35-.09 2.01-.27a6.75 6.75 0 0 0 1.98-.9c.28-.18.53-.26.75-.24.24 0 .43.07.57.21.14.12.23.28.27.48.06.18.04.38-.06.6-.08.22-.25.41-.51.57-.66.48-1.44.85-2.34 1.11-.9.26-1.79.39-2.67.39Zm14.947 0c-1.3 0-2.44-.31-3.42-.93-.96-.62-1.71-1.49-2.25-2.61-.52-1.14-.78-2.48-.78-4.02 0-1.56.26-2.9.78-4.02.54-1.14 1.29-2.01 2.25-2.61.98-.62 2.12-.93 3.42-.93 1.32 0 2.45.33 3.39.99.94.66 1.57 1.55 1.89 2.67h-.33V9.87c0-.4.1-.7.3-.9.22-.22.53-.33.93-.33.38 0 .67.11.87.33.22.2.33.5.33.9v19.08c0 .4-.1.71-.3.93-.2.22-.5.33-.9.33-.38 0-.68-.11-.9-.33-.2-.22-.3-.53-.3-.93V26.1l.33.42a4.86 4.86 0 0 1-1.92 2.73c-.94.68-2.07 1.02-3.39 1.02Zm.51-1.95c.9 0 1.69-.22 2.37-.66.68-.44 1.2-1.08 1.56-1.92.38-.84.57-1.85.57-3.03 0-1.82-.41-3.21-1.23-4.17-.8-.96-1.89-1.44-3.27-1.44-.92 0-1.72.22-2.4.66-.66.42-1.18 1.05-1.56 1.89-.36.82-.54 1.84-.54 3.06 0 1.8.41 3.19 1.23 4.17.82.96 1.91 1.44 3.27 1.44Zm21.144 1.89c-.38 0-.68-.11-.9-.33-.2-.22-.3-.53-.3-.93V17.31h-1.92c-.32 0-.58-.08-.78-.24-.18-.18-.27-.42-.27-.72s.09-.53.27-.69c.2-.16.46-.24.78-.24h2.58l-.66.63v-1.14c0-1.9.46-3.35 1.38-4.35.94-1 2.31-1.58 4.11-1.74l.87-.09c.28-.02.5.03.66.15.18.12.29.27.33.45.06.18.07.37.03.57-.04.18-.13.34-.27.48-.14.14-.31.22-.51.24l-.69.06c-1.22.1-2.11.47-2.67 1.11-.54.64-.81 1.58-.81 2.82v1.26l-.36-.45h3.6c.34 0 .6.08.78.24.18.16.27.39.27.69 0 .3-.09.54-.27.72-.18.16-.44.24-.78.24h-3.24v11.64c0 .84-.41 1.26-1.23 1.26Zm13.66.06c-1.42 0-2.65-.31-3.69-.93-1.04-.62-1.85-1.49-2.43-2.61-.56-1.14-.84-2.48-.84-4.02 0-1.16.16-2.2.48-3.12.32-.94.79-1.74 1.41-2.4.62-.66 1.35-1.16 2.19-1.5.86-.36 1.82-.54 2.88-.54 1.42 0 2.65.31 3.69.93 1.04.62 1.84 1.5 2.4 2.64.58 1.12.87 2.45.87 3.99 0 1.16-.16 2.2-.48 3.12-.32.92-.79 1.72-1.41 2.4-.62.66-1.36 1.17-2.22 1.53-.84.34-1.79.51-2.85.51Zm0-1.95c.9 0 1.69-.22 2.37-.66.68-.44 1.2-1.08 1.56-1.92.38-.84.57-1.85.57-3.03 0-1.82-.41-3.21-1.23-4.17-.8-.96-1.89-1.44-3.27-1.44-.92 0-1.72.22-2.4.66-.66.42-1.18 1.05-1.56 1.89-.36.82-.54 1.84-.54 3.06 0 1.8.41 3.19 1.23 4.17.82.96 1.91 1.44 3.27 1.44Zm11.84 1.89c-.4 0-.71-.11-.93-.33-.2-.22-.3-.53-.3-.93V16.44c0-.4.1-.7.3-.9.2-.22.49-.33.87-.33s.67.11.87.33c.22.2.33.5.33.9v2.43h-.3c.32-1.18.93-2.09 1.83-2.73.9-.64 2.01-.98 3.33-1.02.3-.02.54.05.72.21.18.14.28.39.3.75.02.34-.06.61-.24.81-.18.2-.46.32-.84.36l-.48.06c-1.36.12-2.41.56-3.15 1.32-.72.74-1.08 1.76-1.08 3.06v7.26c0 .4-.11.71-.33.93-.2.22-.5.33-.9.33Zm23.437.06c-1.46 0-2.72-.32-3.78-.96-1.06-.64-1.88-1.53-2.46-2.67-.56-1.16-.84-2.5-.84-4.02 0-1.16.16-2.2.48-3.12.32-.92.79-1.7 1.41-2.34.62-.66 1.36-1.16 2.22-1.5.88-.34 1.87-.51 2.97-.51.72 0 1.47.11 2.25.33.78.22 1.49.6 2.13 1.14.2.14.33.31.39.51s.06.4 0 .6c-.06.18-.16.34-.3.48-.14.12-.32.19-.54.21-.2.02-.41-.05-.63-.21-.52-.4-1.05-.68-1.59-.84-.54-.16-1.06-.24-1.56-.24-.78 0-1.46.13-2.04.39-.58.24-1.07.59-1.47 1.05-.4.46-.71 1.03-.93 1.71-.2.68-.3 1.47-.3 2.37 0 1.74.41 3.12 1.23 4.14.82 1 1.99 1.5 3.51 1.5.5 0 1.01-.08 1.53-.24.54-.16 1.08-.44 1.62-.84.22-.16.43-.23.63-.21.2.02.37.1.51.24.14.12.23.28.27.48.06.2.06.4 0 .6-.06.18-.19.34-.39.48-.64.52-1.34.9-2.1 1.14-.76.22-1.5.33-2.22.33Zm13.473 0c-1.42 0-2.65-.31-3.69-.93-1.04-.62-1.85-1.49-2.43-2.61-.56-1.14-.84-2.48-.84-4.02 0-1.16.16-2.2.48-3.12.32-.94.79-1.74 1.41-2.4.62-.66 1.35-1.16 2.19-1.5.86-.36 1.82-.54 2.88-.54 1.42 0 2.65.31 3.69.93 1.04.62 1.84 1.5 2.4 2.64.58 1.12.87 2.45.87 3.99 0 1.16-.16 2.2-.48 3.12-.32.92-.79 1.72-1.41 2.4-.62.66-1.36 1.17-2.22 1.53-.84.34-1.79.51-2.85.51Zm0-1.95c.9 0 1.69-.22 2.37-.66.68-.44 1.2-1.08 1.56-1.92.38-.84.57-1.85.57-3.03 0-1.82-.41-3.21-1.23-4.17-.8-.96-1.89-1.44-3.27-1.44-.92 0-1.72.22-2.4.66-.66.42-1.18 1.05-1.56 1.89-.36.82-.54 1.84-.54 3.06 0 1.8.41 3.19 1.23 4.17.82.96 1.91 1.44 3.27 1.44Zm11.87 1.89c-.4 0-.7-.11-.9-.33-.2-.22-.3-.53-.3-.93V16.44c0-.4.1-.7.3-.9.2-.22.49-.33.87-.33s.67.11.87.33c.22.2.33.5.33.9v2.64l-.33-.42c.38-1.12.99-1.98 1.83-2.58.86-.62 1.88-.93 3.06-.93 1.24 0 2.24.3 3 .9.78.58 1.3 1.49 1.56 2.73h-.45c.36-1.12 1-2 1.92-2.64.94-.66 2.03-.99 3.27-.99 1.1 0 2 .21 2.7.63.72.42 1.26 1.06 1.62 1.92.36.84.54 1.91.54 3.21v8.04c0 .4-.11.71-.33.93-.2.22-.5.33-.9.33-.38 0-.68-.11-.9-.33-.2-.22-.3-.53-.3-.93v-7.92c0-1.34-.23-2.32-.69-2.94-.46-.64-1.24-.96-2.34-.96-1.2 0-2.15.42-2.85 1.26-.68.82-1.02 1.94-1.02 3.36v7.2c0 .4-.11.71-.33.93-.2.22-.5.33-.9.33-.38 0-.68-.11-.9-.33-.2-.22-.3-.53-.3-.93v-7.92c0-1.34-.24-2.32-.72-2.94-.46-.64-1.23-.96-2.31-.96-1.2 0-2.15.42-2.85 1.26-.68.82-1.02 1.94-1.02 3.36v7.2c0 .84-.41 1.26-1.23 1.26Zm25.634 5.4c-.4 0-.7-.11-.9-.33-.2-.2-.3-.5-.3-.9V16.44c0-.4.1-.7.3-.9.2-.22.49-.33.87-.33.4 0 .7.11.9.33.22.2.33.5.33.9v2.85l-.33-.42c.32-1.14.95-2.04 1.89-2.7.96-.68 2.1-1.02 3.42-1.02 1.3 0 2.43.31 3.39.93.98.6 1.73 1.47 2.25 2.61.54 1.12.81 2.46.81 4.02 0 1.54-.27 2.88-.81 4.02-.52 1.12-1.26 1.99-2.22 2.61-.96.62-2.1.93-3.42.93-1.32 0-2.45-.33-3.39-.99a5.057 5.057 0 0 1-1.92-2.7h.36v7.8c0 .4-.11.7-.33.9-.22.22-.52.33-.9.33Zm5.67-7.29c.92 0 1.71-.22 2.37-.66.68-.44 1.2-1.08 1.56-1.92.38-.84.57-1.85.57-3.03 0-1.82-.41-3.21-1.23-4.17-.8-.96-1.89-1.44-3.27-1.44-.9 0-1.69.22-2.37.66-.68.42-1.21 1.05-1.59 1.89-.36.82-.54 1.84-.54 3.06 0 1.8.41 3.19 1.23 4.17.82.96 1.91 1.44 3.27 1.44Zm15.21 1.95c-1 0-1.9-.19-2.7-.57-.78-.4-1.4-.94-1.86-1.62-.46-.68-.69-1.44-.69-2.28 0-1.08.27-1.93.81-2.55.56-.62 1.47-1.06 2.73-1.32 1.28-.26 3.02-.39 5.22-.39h1.35v1.59h-1.32c-1.62 0-2.9.08-3.84.24-.92.14-1.57.39-1.95.75-.36.36-.54.87-.54 1.53 0 .82.28 1.49.84 2.01.58.52 1.36.78 2.34.78.8 0 1.5-.19 2.1-.57.62-.38 1.1-.9 1.44-1.56.36-.66.54-1.42.54-2.28v-3.42c0-1.24-.25-2.13-.75-2.67-.5-.56-1.32-.84-2.46-.84-.7 0-1.4.09-2.1.27-.7.18-1.44.47-2.22.87-.28.14-.52.19-.72.15a.91.91 0 0 1-.48-.33 1.06 1.06 0 0 1-.21-.54c-.02-.22.02-.43.12-.63.12-.2.3-.36.54-.48.88-.44 1.75-.76 2.61-.96.86-.2 1.68-.3 2.46-.3 1.26 0 2.3.21 3.12.63.82.4 1.43 1.02 1.83 1.86.4.82.6 1.88.6 3.18v8.13c0 .4-.1.71-.3.93-.18.22-.45.33-.81.33-.38 0-.67-.11-.87-.33-.2-.22-.3-.53-.3-.93v-2.34h.27c-.16.76-.47 1.41-.93 1.95-.44.54-.99.96-1.65 1.26-.66.3-1.4.45-2.22.45Zm12.518-.06c-.4 0-.7-.11-.9-.33-.2-.22-.3-.53-.3-.93V16.44c0-.4.1-.7.3-.9.2-.22.49-.33.87-.33s.67.11.87.33c.22.2.33.5.33.9v2.58l-.33-.36c.42-1.16 1.1-2.03 2.04-2.61.96-.6 2.06-.9 3.3-.9 1.16 0 2.12.21 2.88.63.78.42 1.36 1.06 1.74 1.92.38.84.57 1.91.57 3.21v8.04c0 .4-.11.71-.33.93-.2.22-.49.33-.87.33-.4 0-.71-.11-.93-.33-.2-.22-.3-.53-.3-.93v-7.89c0-1.36-.27-2.35-.81-2.97-.52-.64-1.36-.96-2.52-.96-1.34 0-2.41.42-3.21 1.26-.78.82-1.17 1.92-1.17 3.3v7.26c0 .84-.41 1.26-1.23 1.26Zm18.944 5.4c-.3 0-.54-.08-.72-.24-.18-.16-.29-.38-.33-.66-.02-.26.03-.53.15-.81l2.07-4.65v1.05l-5.76-13.38c-.12-.3-.16-.58-.12-.84.04-.26.16-.47.36-.63.2-.16.48-.24.84-.24.32 0 .57.07.75.21.18.14.34.39.48.75l4.92 12.06h-.81l4.98-12.06c.16-.36.33-.61.51-.75s.44-.21.78-.21c.32 0 .56.08.72.24a.9.9 0 0 1 .3.63c.04.24 0 .51-.12.81l-7.68 17.76c-.16.36-.34.61-.54.75-.18.14-.44.21-.78.21Zm29.115-5.34c-1.96 0-3.67-.44-5.13-1.32-1.44-.9-2.56-2.16-3.36-3.78-.78-1.62-1.17-3.54-1.17-5.76 0-1.68.22-3.18.66-4.5.46-1.34 1.11-2.47 1.95-3.39a8.41 8.41 0 0 1 3.03-2.16c1.2-.52 2.54-.78 4.02-.78 2 0 3.72.44 5.16 1.32 1.46.88 2.58 2.13 3.36 3.75.8 1.6 1.2 3.51 1.2 5.73 0 1.68-.23 3.19-.69 4.53-.46 1.34-1.11 2.48-1.95 3.42-.84.94-1.86 1.67-3.06 2.19-1.18.5-2.52.75-4.02.75Zm0-2.19c1.52 0 2.8-.34 3.84-1.02 1.06-.68 1.87-1.67 2.43-2.97.56-1.3.84-2.86.84-4.68 0-2.74-.62-4.86-1.86-6.36-1.22-1.52-2.97-2.28-5.25-2.28-1.48 0-2.75.34-3.81 1.02-1.04.68-1.84 1.67-2.4 2.97-.56 1.28-.84 2.83-.84 4.65 0 2.72.62 4.85 1.86 6.39 1.24 1.52 2.97 2.28 5.19 2.28Zm15.348 2.13c-.4 0-.71-.11-.93-.33-.2-.24-.3-.56-.3-.96V10.11c0-.42.11-.73.33-.93.22-.22.53-.33.93-.33h7.11c2.26 0 4 .56 5.22 1.68 1.22 1.1 1.83 2.66 1.83 4.68 0 2-.61 3.56-1.83 4.68-1.22 1.12-2.96 1.68-5.22 1.68h-5.91v7.35c0 .4-.1.72-.3.96-.2.22-.51.33-.93.33Zm1.23-10.71h5.61c1.62 0 2.84-.36 3.66-1.08.84-.74 1.26-1.81 1.26-3.21 0-1.42-.42-2.49-1.26-3.21-.82-.74-2.04-1.11-3.66-1.11h-5.61v8.61Zm22.388 10.71c-.38 0-.68-.11-.9-.33-.22-.24-.33-.56-.33-.96V10.98h-6.75c-.36 0-.64-.1-.84-.3-.2-.2-.3-.46-.3-.78 0-.34.1-.6.3-.78.2-.18.48-.27.84-.27h15.99c.36 0 .64.09.84.27.2.18.3.44.3.78s-.1.61-.3.81c-.2.18-.48.27-.84.27h-6.75v17.94c0 .4-.11.72-.33.96-.2.22-.51.33-.93.33Zm28.241.06c-1.96 0-3.67-.44-5.13-1.32-1.44-.9-2.56-2.16-3.36-3.78-.78-1.62-1.17-3.54-1.17-5.76 0-1.68.22-3.18.66-4.5.46-1.34 1.11-2.47 1.95-3.39a8.41 8.41 0 0 1 3.03-2.16c1.2-.52 2.54-.78 4.02-.78 2 0 3.72.44 5.16 1.32 1.46.88 2.58 2.13 3.36 3.75.8 1.6 1.2 3.51 1.2 5.73 0 1.68-.23 3.19-.69 4.53-.46 1.34-1.11 2.48-1.95 3.42-.84.94-1.86 1.67-3.06 2.19-1.18.5-2.52.75-4.02.75Zm0-2.19c1.52 0 2.8-.34 3.84-1.02 1.06-.68 1.87-1.67 2.43-2.97.56-1.3.84-2.86.84-4.68 0-2.74-.62-4.86-1.86-6.36-1.22-1.52-2.97-2.28-5.25-2.28-1.48 0-2.75.34-3.81 1.02-1.04.68-1.84 1.67-2.4 2.97-.56 1.28-.84 2.83-.84 4.65 0 2.72.62 4.85 1.86 6.39 1.24 1.52 2.97 2.28 5.19 2.28Zm14.988 2.13c-.4 0-.7-.11-.9-.33-.2-.22-.3-.53-.3-.93V16.44c0-.4.1-.7.3-.9.2-.22.49-.33.87-.33s.67.11.87.33c.22.2.33.5.33.9v2.58l-.33-.36c.42-1.16 1.1-2.03 2.04-2.61.96-.6 2.06-.9 3.3-.9 1.16 0 2.12.21 2.88.63.78.42 1.36 1.06 1.74 1.92.38.84.57 1.91.57 3.21v8.04c0 .4-.11.71-.33.93-.2.22-.49.33-.87.33-.4 0-.71-.11-.93-.33-.2-.22-.3-.53-.3-.93v-7.89c0-1.36-.27-2.35-.81-2.97-.52-.64-1.36-.96-2.52-.96-1.34 0-2.41.42-3.21 1.26-.78.82-1.17 1.92-1.17 3.3v7.26c0 .84-.41 1.26-1.23 1.26Zm17.531-.21c-.44 0-.78-.11-1.02-.33-.22-.24-.33-.58-.33-1.02V10.2c0-.44.11-.77.33-.99.24-.24.58-.36 1.02-.36h5.79c3.42 0 6.06.9 7.92 2.7 1.86 1.8 2.79 4.42 2.79 7.86 0 1.72-.24 3.24-.72 4.56-.46 1.3-1.15 2.4-2.07 3.3-.92.9-2.04 1.58-3.36 2.04-1.32.46-2.84.69-4.56.69h-5.79Zm1.11-2.1h4.5c1.4 0 2.61-.18 3.63-.54 1.04-.36 1.9-.89 2.58-1.59.7-.7 1.22-1.58 1.56-2.64.34-1.08.51-2.32.51-3.72 0-2.82-.69-4.93-2.07-6.33-1.38-1.42-3.45-2.13-6.21-2.13h-4.5V27.9Zm26.045 2.37c-1.54 0-2.87-.3-3.99-.9a6.61 6.61 0 0 1-2.58-2.61c-.6-1.12-.9-2.46-.9-4.02 0-1.52.3-2.84.9-3.96.6-1.14 1.42-2.03 2.46-2.67 1.06-.64 2.28-.96 3.66-.96.98 0 1.86.17 2.64.51.78.32 1.44.79 1.98 1.41.56.62.98 1.37 1.26 2.25.3.88.45 1.87.45 2.97 0 .32-.09.56-.27.72-.18.14-.44.21-.78.21h-10.44v-1.59h9.87l-.48.39c0-1.08-.16-1.99-.48-2.73-.32-.76-.79-1.34-1.41-1.74-.6-.4-1.36-.6-2.28-.6-1.02 0-1.89.24-2.61.72-.7.46-1.23 1.11-1.59 1.95-.36.82-.54 1.78-.54 2.88v.18c0 1.84.44 3.24 1.32 4.2.9.96 2.17 1.44 3.81 1.44.68 0 1.35-.09 2.01-.27a6.75 6.75 0 0 0 1.98-.9c.28-.18.53-.26.75-.24.24 0 .43.07.57.21.14.12.23.28.27.48.06.18.04.38-.06.6-.08.22-.25.41-.51.57-.66.48-1.44.85-2.34 1.11-.9.26-1.79.39-2.67.39Zm10.657-.06c-.4 0-.7-.11-.9-.33-.2-.22-.3-.53-.3-.93V16.44c0-.4.1-.7.3-.9.2-.22.49-.33.87-.33s.67.11.87.33c.22.2.33.5.33.9v2.64l-.33-.42c.38-1.12.99-1.98 1.83-2.58.86-.62 1.88-.93 3.06-.93 1.24 0 2.24.3 3 .9.78.58 1.3 1.49 1.56 2.73h-.45c.36-1.12 1-2 1.92-2.64.94-.66 2.03-.99 3.27-.99 1.1 0 2 .21 2.7.63.72.42 1.26 1.06 1.62 1.92.36.84.54 1.91.54 3.21v8.04c0 .4-.11.71-.33.93-.2.22-.5.33-.9.33-.38 0-.68-.11-.9-.33-.2-.22-.3-.53-.3-.93v-7.92c0-1.34-.23-2.32-.69-2.94-.46-.64-1.24-.96-2.34-.96-1.2 0-2.15.42-2.85 1.26-.68.82-1.02 1.94-1.02 3.36v7.2c0 .4-.11.71-.33.93-.2.22-.5.33-.9.33-.38 0-.68-.11-.9-.33-.2-.22-.3-.53-.3-.93v-7.92c0-1.34-.24-2.32-.72-2.94-.46-.64-1.23-.96-2.31-.96-1.2 0-2.15.42-2.85 1.26-.68.82-1.02 1.94-1.02 3.36v7.2c0 .84-.41 1.26-1.23 1.26Zm29.023.06c-1 0-1.9-.19-2.7-.57-.78-.4-1.4-.94-1.86-1.62-.46-.68-.69-1.44-.69-2.28 0-1.08.27-1.93.81-2.55.56-.62 1.47-1.06 2.73-1.32 1.28-.26 3.02-.39 5.22-.39h1.35v1.59h-1.32c-1.62 0-2.9.08-3.84.24-.92.14-1.57.39-1.95.75-.36.36-.54.87-.54 1.53 0 .82.28 1.49.84 2.01.58.52 1.36.78 2.34.78.8 0 1.5-.19 2.1-.57.62-.38 1.1-.9 1.44-1.56.36-.66.54-1.42.54-2.28v-3.42c0-1.24-.25-2.13-.75-2.67-.5-.56-1.32-.84-2.46-.84-.7 0-1.4.09-2.1.27-.7.18-1.44.47-2.22.87-.28.14-.52.19-.72.15a.91.91 0 0 1-.48-.33 1.06 1.06 0 0 1-.21-.54c-.02-.22.02-.43.12-.63.12-.2.3-.36.54-.48.88-.44 1.75-.76 2.61-.96.86-.2 1.68-.3 2.46-.3 1.26 0 2.3.21 3.12.63.82.4 1.43 1.02 1.83 1.86.4.82.6 1.88.6 3.18v8.13c0 .4-.1.71-.3.93-.18.22-.45.33-.81.33-.38 0-.67-.11-.87-.33-.2-.22-.3-.53-.3-.93v-2.34h.27c-.16.76-.47 1.41-.93 1.95-.44.54-.99.96-1.65 1.26-.66.3-1.4.45-2.22.45Zm12.519-.06c-.4 0-.7-.11-.9-.33-.2-.22-.3-.53-.3-.93V16.44c0-.4.1-.7.3-.9.2-.22.49-.33.87-.33s.67.11.87.33c.22.2.33.5.33.9v2.58l-.33-.36c.42-1.16 1.1-2.03 2.04-2.61.96-.6 2.06-.9 3.3-.9 1.16 0 2.12.21 2.88.63.78.42 1.36 1.06 1.74 1.92.38.84.57 1.91.57 3.21v8.04c0 .4-.11.71-.33.93-.2.22-.49.33-.87.33-.4 0-.71-.11-.93-.33-.2-.22-.3-.53-.3-.93v-7.89c0-1.36-.27-2.35-.81-2.97-.52-.64-1.36-.96-2.52-.96-1.34 0-2.41.42-3.21 1.26-.78.82-1.17 1.92-1.17 3.3v7.26c0 .84-.41 1.26-1.23 1.26Zm21.4.06c-1.3 0-2.44-.31-3.42-.93-.96-.62-1.71-1.49-2.25-2.61-.52-1.14-.78-2.48-.78-4.02 0-1.56.26-2.9.78-4.02.54-1.14 1.29-2.01 2.25-2.61.98-.62 2.12-.93 3.42-.93 1.32 0 2.45.33 3.39.99.94.66 1.57 1.55 1.89 2.67h-.33V9.87c0-.4.1-.7.3-.9.22-.22.53-.33.93-.33.38 0 .67.11.87.33.22.2.33.5.33.9v19.08c0 .4-.1.71-.3.93-.2.22-.5.33-.9.33-.38 0-.68-.11-.9-.33-.2-.22-.3-.53-.3-.93V26.1l.33.42a4.86 4.86 0 0 1-1.92 2.73c-.94.68-2.07 1.02-3.39 1.02Zm.51-1.95c.9 0 1.69-.22 2.37-.66.68-.44 1.2-1.08 1.56-1.92.38-.84.57-1.85.57-3.03 0-1.82-.41-3.21-1.23-4.17-.8-.96-1.89-1.44-3.27-1.44-.92 0-1.72.22-2.4.66-.66.42-1.18 1.05-1.56 1.89-.36.82-.54 1.84-.54 3.06 0 1.8.41 3.19 1.23 4.17.82.96 1.91 1.44 3.27 1.44Z" fill="#FAE100"/><path d="M51.3 55.125c-.183.017-.325-.025-.425-.125a.567.567 0 0 1-.15-.375c0-.1.042-.192.125-.275.067-.1.183-.158.35-.175l.825-.075c.933-.083 1.658-.442 2.175-1.075.517-.633.775-1.467.775-2.5v-12.75c0-.183.042-.317.125-.4.1-.1.233-.15.4-.15s.292.05.375.15c.1.083.15.217.15.4v12.8c0 .883-.15 1.65-.45 2.3a3.507 3.507 0 0 1-1.325 1.5c-.583.367-1.3.592-2.15.675l-.8.075Zm13.472.075c-.95 0-1.742-.175-2.375-.525a3.306 3.306 0 0 1-1.425-1.55c-.317-.683-.475-1.533-.475-2.55V43.3c0-.183.041-.317.125-.4.1-.1.233-.15.4-.15.166 0 .291.05.375.15.1.083.15.217.15.4v7.175c0 1.267.258 2.208.775 2.825s1.333.925 2.45.925c1.216 0 2.2-.4 2.95-1.2.767-.817 1.15-1.883 1.15-3.2V43.3c0-.183.041-.317.125-.4.1-.1.233-.15.4-.15.166 0 .291.05.375.15.1.083.15.217.15.4v11.3c0 .367-.167.55-.5.55a.54.54 0 0 1-.4-.15.604.604 0 0 1-.125-.4v-2.625h.3c-.317 1.05-.875 1.85-1.675 2.4-.8.55-1.717.825-2.75.825Zm9.923-.05a.54.54 0 0 1-.4-.15.605.605 0 0 1-.125-.4V43.3c0-.183.042-.317.125-.4.1-.1.233-.15.4-.15s.292.05.375.15c.083.083.125.217.125.4v2.55h-.275c.333-1.05.908-1.833 1.725-2.35.817-.533 1.758-.8 2.825-.8.967 0 1.767.167 2.4.5a3.15 3.15 0 0 1 1.45 1.525c.317.683.475 1.542.475 2.575v7.3c0 .167-.05.3-.15.4-.083.1-.208.15-.375.15a.54.54 0 0 1-.4-.15.605.605 0 0 1-.125-.4v-7.2c0-1.283-.258-2.225-.775-2.825-.517-.6-1.35-.9-2.5-.9-1.283 0-2.317.4-3.1 1.2-.767.783-1.15 1.842-1.15 3.175v6.55c0 .367-.175.55-.525.55Zm13.818-.075a.54.54 0 0 1-.4-.15.604.604 0 0 1-.125-.4v-11.15c0-.183.042-.317.125-.4.1-.1.234-.15.4-.15.167 0 .292.05.375.15.1.083.15.217.15.4v11.15a.6.6 0 0 1-.125.4c-.083.1-.216.15-.4.15Zm0-15.475c-.266 0-.483-.075-.65-.225-.15-.167-.225-.383-.225-.65 0-.283.075-.492.225-.625.167-.15.384-.225.65-.225.284 0 .5.075.65.225.15.133.225.342.225.625 0 .267-.075.483-.225.65-.15.15-.366.225-.65.225Zm9.373 15.6c-1.1 0-2.058-.258-2.875-.775-.8-.517-1.425-1.242-1.875-2.175-.433-.933-.65-2.033-.65-3.3 0-.95.125-1.808.375-2.575.25-.767.608-1.425 1.075-1.975a4.737 4.737 0 0 1 1.725-1.25c.667-.3 1.409-.45 2.225-.45 1.1 0 2.05.258 2.85.775.817.517 1.442 1.242 1.875 2.175.45.933.675 2.033.675 3.3 0 .95-.125 1.808-.375 2.575a5.568 5.568 0 0 1-1.1 1.975 4.764 4.764 0 0 1-1.7 1.275c-.65.283-1.392.425-2.225.425Zm0-.975c.883 0 1.65-.208 2.3-.625.65-.417 1.15-1.017 1.5-1.8.35-.8.525-1.75.525-2.85 0-1.667-.392-2.958-1.175-3.875-.767-.933-1.817-1.4-3.15-1.4-.883 0-1.65.208-2.3.625-.65.417-1.15 1.017-1.5 1.8-.35.783-.525 1.733-.525 2.85 0 1.667.392 2.967 1.175 3.9.783.917 1.834 1.375 3.15 1.375Zm9.377.925c-.166 0-.3-.05-.4-.15a.607.607 0 0 1-.125-.4V43.3c0-.183.042-.317.125-.4.1-.1.234-.15.4-.15.167 0 .292.05.375.15.084.083.125.217.125.4v2.425h-.25c.317-.983.875-1.742 1.675-2.275.817-.533 1.759-.8 2.825-.8a.66.66 0 0 1 .375.1c.117.05.175.158.175.325s-.041.3-.125.4c-.083.083-.225.133-.425.15l-.3.025c-1.233.117-2.2.533-2.9 1.25-.683.717-1.025 1.667-1.025 2.85v6.85a.6.6 0 0 1-.125.4c-.083.1-.216.15-.4.15Zm14.706 0c-.2 0-.358-.05-.475-.15-.1-.117-.15-.275-.15-.475V38c0-.2.05-.35.15-.45.117-.117.275-.175.475-.175h9.35c.167 0 .292.042.375.125.1.083.15.2.15.35 0 .167-.05.292-.15.375-.083.083-.208.125-.375.125h-8.925v7.225h8.425c.167 0 .292.042.375.125.1.083.15.2.15.35 0 .167-.05.292-.15.375-.083.083-.208.125-.375.125h-8.425v7.975c0 .417-.141.625-.425.625Zm16.485.05c-.95 0-1.742-.175-2.375-.525a3.3 3.3 0 0 1-1.425-1.55c-.317-.683-.475-1.533-.475-2.55V43.3c0-.183.041-.317.125-.4.1-.1.233-.15.4-.15.166 0 .291.05.375.15.1.083.15.217.15.4v7.175c0 1.267.258 2.208.775 2.825.516.617 1.333.925 2.45.925 1.216 0 2.2-.4 2.95-1.2.766-.817 1.15-1.883 1.15-3.2V43.3c0-.183.041-.317.125-.4.1-.1.233-.15.4-.15.166 0 .291.05.375.15.1.083.15.217.15.4v11.3c0 .367-.167.55-.5.55a.54.54 0 0 1-.4-.15.601.601 0 0 1-.125-.4v-2.625h.3c-.317 1.05-.875 1.85-1.675 2.4-.8.55-1.717.825-2.75.825Zm12.698 0c-1.05 0-1.867-.333-2.45-1-.567-.683-.85-1.633-.85-2.85V37.775c0-.183.041-.317.125-.4.1-.1.233-.15.4-.15.166 0 .291.05.375.15.1.083.15.217.15.4v13.4c0 1.017.2 1.783.6 2.3.4.5.983.75 1.75.75.166 0 .308-.008.425-.025.116-.017.233-.025.35-.025.133 0 .233.025.3.075.083.05.125.15.125.3 0 .183-.05.317-.15.4-.1.083-.267.15-.5.2a2.477 2.477 0 0 1-.35.025c-.1.017-.2.025-.3.025Zm6.884 0c-1.05 0-1.866-.333-2.45-1-.566-.683-.85-1.633-.85-2.85V37.775c0-.183.042-.317.125-.4.1-.1.234-.15.4-.15.167 0 .292.05.375.15.1.083.15.217.15.4v13.4c0 1.017.2 1.783.6 2.3.4.5.984.75 1.75.75.167 0 .309-.008.425-.025.117-.017.234-.025.35-.025.134 0 .234.025.3.075.084.05.125.15.125.3 0 .183-.05.317-.15.4-.1.083-.266.15-.5.2a2.456 2.456 0 0 1-.35.025c-.1.017-.2.025-.3.025Zm7.238 0a7.645 7.645 0 0 1-2.225-.325c-.717-.217-1.417-.583-2.1-1.1a.528.528 0 0 1-.175-.25.889.889 0 0 1 0-.3.62.62 0 0 1 .15-.25.382.382 0 0 1 .275-.125.6.6 0 0 1 .35.125c.633.467 1.267.792 1.9.975a6.806 6.806 0 0 0 1.9.275c1.083 0 1.908-.208 2.475-.625.583-.417.875-.983.875-1.7 0-.567-.192-1.008-.575-1.325-.367-.333-.967-.6-1.8-.8l-2.075-.5c-1.05-.25-1.825-.633-2.325-1.15-.483-.517-.725-1.183-.725-2 0-.683.175-1.283.525-1.8.367-.517.875-.917 1.525-1.2.667-.283 1.433-.425 2.3-.425.733 0 1.433.117 2.1.35a4.418 4.418 0 0 1 1.725 1.05c.1.1.158.208.175.325.033.1.033.2 0 .3a.399.399 0 0 1-.175.225.57.57 0 0 1-.3.075.7.7 0 0 1-.325-.175 4.536 4.536 0 0 0-1.525-.875c-.55-.2-1.117-.3-1.7-.3-1.017 0-1.808.225-2.375.675-.567.433-.85 1.017-.85 1.75 0 .567.175 1.025.525 1.375.35.35.908.617 1.675.8l2.075.5c1.083.267 1.892.642 2.425 1.125.533.483.8 1.133.8 1.95 0 1.017-.408 1.833-1.225 2.45-.817.6-1.917.9-3.3.9Zm12.218 0c-.833 0-1.533-.158-2.1-.475a3.153 3.153 0 0 1-1.275-1.4c-.283-.617-.425-1.358-.425-2.225v-7.3h-2.025a.606.606 0 0 1-.4-.125.403.403 0 0 1-.15-.325c0-.133.05-.242.15-.325a.606.606 0 0 1 .4-.125h2.025v-3.375c0-.183.042-.317.125-.4.1-.1.234-.15.4-.15.167 0 .292.05.375.15.1.083.15.217.15.4V42.9h3.575c.184 0 .317.042.4.125.1.083.15.192.15.325s-.05.242-.15.325c-.083.083-.216.125-.4.125h-3.575v7.075c0 1.083.217 1.917.65 2.5.434.567 1.159.85 2.175.85.35 0 .634-.033.85-.1.234-.083.425-.125.575-.125.1 0 .184.042.25.125a.47.47 0 0 1 .125.35.622.622 0 0 1-.075.275c-.033.083-.108.142-.225.175a3.525 3.525 0 0 1-.725.175c-.3.067-.583.1-.85.1Zm7.408 0c-.783 0-1.492-.158-2.125-.475-.633-.317-1.133-.742-1.5-1.275a3.217 3.217 0 0 1-.55-1.825c0-.9.217-1.6.65-2.1.45-.517 1.208-.875 2.275-1.075 1.083-.217 2.567-.325 4.45-.325h1.025v.925h-.975c-1.65 0-2.933.075-3.85.225-.9.133-1.533.383-1.9.75-.35.35-.525.85-.525 1.5 0 .8.275 1.458.825 1.975.567.5 1.325.75 2.275.75.767 0 1.433-.183 2-.55a4.046 4.046 0 0 0 1.375-1.525c.333-.65.5-1.383.5-2.2v-2.85c0-1.2-.233-2.075-.7-2.625-.467-.55-1.217-.825-2.25-.825a6.72 6.72 0 0 0-1.925.275 9.31 9.31 0 0 0-1.9.85c-.15.083-.283.117-.4.1a.449.449 0 0 1-.25-.125.871.871 0 0 1-.15-.275.702.702 0 0 1 .025-.325.6.6 0 0 1 .25-.25 8.228 8.228 0 0 1 2.125-.925c.733-.2 1.458-.3 2.175-.3.917 0 1.675.158 2.275.475.6.317 1.042.8 1.325 1.45.3.65.45 1.483.45 2.5V54.6c0 .167-.042.3-.125.4-.083.1-.208.15-.375.15a.54.54 0 0 1-.4-.15.607.607 0 0 1-.125-.4v-2.625h.275a4.302 4.302 0 0 1-.85 1.725 4.11 4.11 0 0 1-1.475 1.125c-.567.25-1.208.375-1.925.375Zm13.917 0c-1.15 0-2.142-.267-2.975-.8-.817-.533-1.45-1.275-1.9-2.225-.434-.95-.65-2.058-.65-3.325 0-.95.125-1.8.375-2.55.25-.767.608-1.417 1.075-1.95a4.812 4.812 0 0 1 1.75-1.225c.683-.283 1.458-.425 2.325-.425a5.68 5.68 0 0 1 1.925.35 4.42 4.42 0 0 1 1.775 1.1.384.384 0 0 1 .125.275c.016.1 0 .2-.05.3a.411.411 0 0 1-.175.2.576.576 0 0 1-.3.075.632.632 0 0 1-.35-.2c-.484-.433-.984-.725-1.5-.875-.5-.167-.992-.25-1.475-.25-.717 0-1.35.117-1.9.35a3.72 3.72 0 0 0-1.4 1.025c-.367.433-.65.975-.85 1.625-.184.633-.275 1.367-.275 2.2 0 1.667.383 2.975 1.15 3.925.766.95 1.858 1.425 3.275 1.425.483 0 .975-.075 1.475-.225.516-.167 1.016-.467 1.5-.9.116-.117.233-.175.35-.175a.446.446 0 0 1 .3.05c.083.05.141.125.175.225.05.083.066.175.05.275 0 .1-.042.192-.125.275a4.672 4.672 0 0 1-1.775 1.125 6.062 6.062 0 0 1-1.925.325Zm7.177-.05a.54.54 0 0 1-.4-.15.601.601 0 0 1-.125-.4V37.775c0-.183.041-.317.125-.4.1-.1.233-.15.4-.15.166 0 .291.05.375.15.1.083.15.217.15.4V48.5h.05l6.025-5.375a2.33 2.33 0 0 1 .375-.275.841.841 0 0 1 .425-.1c.133 0 .241.042.325.125.083.067.116.158.1.275 0 .117-.067.242-.2.375l-6.425 5.7v-.9l6.975 5.95c.166.133.258.267.275.4a.373.373 0 0 1-.1.325.337.337 0 0 1-.3.15.79.79 0 0 1-.4-.1 5.899 5.899 0 0 1-.425-.325l-6.65-5.65h-.05V54.6c0 .367-.175.55-.525.55Zm18.221-.15c-.2 0-.358-.05-.475-.15-.1-.117-.15-.275-.15-.475V38c0-.2.05-.35.15-.45.117-.117.275-.175.475-.175h4.8c2.767 0 4.892.75 6.375 2.25 1.5 1.483 2.25 3.667 2.25 6.55 0 1.433-.191 2.7-.575 3.8-.383 1.1-.941 2.025-1.675 2.775-.733.733-1.633 1.292-2.7 1.675-1.066.383-2.291.575-3.675.575h-4.8Zm.425-.975h4.275c1.267 0 2.375-.167 3.325-.5.95-.333 1.742-.825 2.375-1.475.634-.65 1.109-1.467 1.425-2.45.317-.983.475-2.125.475-3.425 0-2.6-.633-4.55-1.9-5.85-1.266-1.317-3.166-1.975-5.7-1.975h-4.275v15.675Zm21.816 1.175c-1.2 0-2.234-.25-3.1-.75a5.185 5.185 0 0 1-2.025-2.125c-.467-.933-.7-2.042-.7-3.325 0-1.267.233-2.367.7-3.3.483-.95 1.141-1.683 1.975-2.2.85-.533 1.825-.8 2.925-.8.783 0 1.475.133 2.075.4.616.267 1.133.65 1.55 1.15.433.5.758 1.108.975 1.825.233.717.35 1.525.35 2.425 0 .217-.05.383-.15.5-.084.1-.217.15-.4.15h-9.325v-.925h9.325l-.425.3c0-1.017-.15-1.883-.45-2.6-.3-.733-.75-1.292-1.35-1.675-.584-.4-1.317-.6-2.2-.6-.967 0-1.792.233-2.475.7-.667.45-1.175 1.067-1.525 1.85-.334.783-.5 1.675-.5 2.675V49c0 1.667.408 2.958 1.225 3.875.833.9 1.991 1.35 3.475 1.35.666 0 1.291-.083 1.875-.25.583-.183 1.158-.5 1.725-.95.116-.1.233-.15.35-.15a.418.418 0 0 1 .325.075c.1.05.166.125.2.225.05.083.058.183.025.3a.644.644 0 0 1-.25.325c-.517.433-1.15.775-1.9 1.025a7.23 7.23 0 0 1-2.3.375Zm12.114-.05a.767.767 0 0 1-.475-.15 1.465 1.465 0 0 1-.35-.5l-4.65-10.875a.842.842 0 0 1-.075-.425.531.531 0 0 1 .15-.325.604.604 0 0 1 .4-.125c.15 0 .258.042.325.125a.892.892 0 0 1 .225.3l4.75 11.45h-.6l4.775-11.45a1.14 1.14 0 0 1 .2-.3c.083-.083.208-.125.375-.125.166 0 .283.042.35.125a.441.441 0 0 1 .125.325.75.75 0 0 1-.075.4l-4.625 10.9c-.084.217-.2.383-.35.5a.771.771 0 0 1-.475.15Zm13.325.05c-1.2 0-2.233-.25-3.1-.75a5.185 5.185 0 0 1-2.025-2.125c-.467-.933-.7-2.042-.7-3.325 0-1.267.233-2.367.7-3.3.483-.95 1.142-1.683 1.975-2.2.85-.533 1.825-.8 2.925-.8.783 0 1.475.133 2.075.4.617.267 1.133.65 1.55 1.15.433.5.758 1.108.975 1.825.233.717.35 1.525.35 2.425 0 .217-.05.383-.15.5-.083.1-.217.15-.4.15h-9.325v-.925h9.325l-.425.3c0-1.017-.15-1.883-.45-2.6-.3-.733-.75-1.292-1.35-1.675-.583-.4-1.317-.6-2.2-.6-.967 0-1.792.233-2.475.7-.667.45-1.175 1.067-1.525 1.85-.333.783-.5 1.675-.5 2.675V49c0 1.667.408 2.958 1.225 3.875.833.9 1.992 1.35 3.475 1.35.667 0 1.292-.083 1.875-.25.583-.183 1.158-.5 1.725-.95a.54.54 0 0 1 .35-.15.417.417 0 0 1 .325.075c.1.05.167.125.2.225.05.083.058.183.025.3a.639.639 0 0 1-.25.325c-.517.433-1.15.775-1.9 1.025a7.23 7.23 0 0 1-2.3.375Zm11.361 0c-1.05 0-1.867-.333-2.45-1-.567-.683-.85-1.633-.85-2.85V37.775c0-.183.042-.317.125-.4.1-.1.233-.15.4-.15s.292.05.375.15c.1.083.15.217.15.4v13.4c0 1.017.2 1.783.6 2.3.4.5.983.75 1.75.75.167 0 .308-.008.425-.025.117-.017.233-.025.35-.025.133 0 .233.025.3.075.083.05.125.15.125.3 0 .183-.05.317-.15.4-.1.083-.267.15-.5.2a2.467 2.467 0 0 1-.35.025c-.1.017-.2.025-.3.025Zm8.063 0c-1.1 0-2.059-.258-2.875-.775-.8-.517-1.425-1.242-1.875-2.175-.434-.933-.65-2.033-.65-3.3 0-.95.125-1.808.375-2.575.25-.767.608-1.425 1.075-1.975a4.73 4.73 0 0 1 1.725-1.25c.666-.3 1.408-.45 2.225-.45 1.1 0 2.05.258 2.85.775.816.517 1.441 1.242 1.875 2.175.45.933.675 2.033.675 3.3 0 .95-.125 1.808-.375 2.575a5.568 5.568 0 0 1-1.1 1.975 4.772 4.772 0 0 1-1.7 1.275c-.65.283-1.392.425-2.225.425Zm0-.975c.883 0 1.65-.208 2.3-.625.65-.417 1.15-1.017 1.5-1.8.35-.8.525-1.75.525-2.85 0-1.667-.392-2.958-1.175-3.875-.767-.933-1.817-1.4-3.15-1.4-.884 0-1.65.208-2.3.625-.65.417-1.15 1.017-1.5 1.8-.35.783-.525 1.733-.525 2.85 0 1.667.391 2.967 1.175 3.9.783.917 1.833 1.375 3.15 1.375Zm9.377 5.425a.54.54 0 0 1-.4-.15.607.607 0 0 1-.125-.4V43.3c0-.183.042-.317.125-.4.1-.1.233-.15.4-.15s.292.05.375.15c.1.083.15.217.15.4v2.75h-.275c.283-1.033.825-1.85 1.625-2.45.817-.6 1.808-.9 2.975-.9 1.1 0 2.05.258 2.85.775.8.5 1.417 1.217 1.85 2.15.45.933.675 2.042.675 3.325 0 1.267-.217 2.375-.65 3.325-.433.933-1.058 1.658-1.875 2.175-.8.5-1.75.75-2.85.75-1.167 0-2.158-.3-2.975-.9-.8-.617-1.342-1.433-1.625-2.45h.275v7.25c0 .167-.05.3-.15.4-.083.1-.208.15-.375.15Zm4.825-5.425c.883 0 1.65-.208 2.3-.625.65-.417 1.15-1.017 1.5-1.8.35-.8.525-1.75.525-2.85 0-1.667-.392-2.958-1.175-3.875-.767-.933-1.817-1.4-3.15-1.4-.883 0-1.65.208-2.3.625-.65.417-1.15 1.017-1.5 1.8-.35.783-.525 1.733-.525 2.85 0 1.667.392 2.967 1.175 3.9.783.917 1.833 1.375 3.15 1.375Zm13.884.975c-1.2 0-2.233-.25-3.1-.75a5.185 5.185 0 0 1-2.025-2.125c-.467-.933-.7-2.042-.7-3.325 0-1.267.233-2.367.7-3.3.483-.95 1.142-1.683 1.975-2.2.85-.533 1.825-.8 2.925-.8.783 0 1.475.133 2.075.4.617.267 1.133.65 1.55 1.15.433.5.758 1.108.975 1.825.233.717.35 1.525.35 2.425 0 .217-.05.383-.15.5-.083.1-.217.15-.4.15h-9.325v-.925h9.325l-.425.3c0-1.017-.15-1.883-.45-2.6-.3-.733-.75-1.292-1.35-1.675-.583-.4-1.317-.6-2.2-.6-.967 0-1.792.233-2.475.7-.667.45-1.175 1.067-1.525 1.85-.333.783-.5 1.675-.5 2.675V49c0 1.667.408 2.958 1.225 3.875.833.9 1.992 1.35 3.475 1.35.667 0 1.292-.083 1.875-.25.583-.183 1.158-.5 1.725-.95a.54.54 0 0 1 .35-.15.417.417 0 0 1 .325.075c.1.05.167.125.2.225.05.083.058.183.025.3a.639.639 0 0 1-.25.325c-.517.433-1.15.775-1.9 1.025a7.23 7.23 0 0 1-2.3.375Zm8.586-.05a.54.54 0 0 1-.4-.15.601.601 0 0 1-.125-.4V43.3c0-.183.041-.317.125-.4.1-.1.233-.15.4-.15.166 0 .291.05.375.15.083.083.125.217.125.4v2.425h-.25c.316-.983.875-1.742 1.675-2.275.816-.533 1.758-.8 2.825-.8a.66.66 0 0 1 .375.1c.116.05.175.158.175.325s-.042.3-.125.4c-.084.083-.225.133-.425.15l-.3.025c-1.234.117-2.2.533-2.9 1.25-.684.717-1.025 1.667-1.025 2.85v6.85c0 .167-.042.3-.125.4-.084.1-.217.15-.4.15Z" fill="#fff"/><path d="M60.39 196.21c-.36 0-.65-.09-.87-.27-.22-.2-.4-.49-.54-.87l-6.63-18.93c-.14-.42-.11-.77.09-1.05.22-.3.56-.45 1.02-.45.34 0 .61.09.81.27.2.16.37.42.51.78l6.21 18.21h-1.05l6.33-18.12c.14-.38.31-.66.51-.84.2-.2.47-.3.81-.3.32 0 .57.1.75.3.2.18.37.46.51.84l6.24 18.12h-.93l6.27-18.21c.1-.34.25-.6.45-.78.22-.18.5-.27.84-.27.42 0 .73.14.93.42.2.28.22.64.06 1.08l-6.66 18.93c-.14.38-.32.67-.54.87-.2.18-.49.27-.87.27-.36 0-.65-.09-.87-.27-.2-.2-.38-.49-.54-.87L67.2 177.7h.66l-6.09 17.37c-.14.38-.31.67-.51.87-.2.18-.49.27-.87.27Zm30.21.06c-1.42 0-2.65-.31-3.69-.93-1.04-.62-1.85-1.49-2.43-2.61-.56-1.14-.84-2.48-.84-4.02 0-1.16.16-2.2.48-3.12.32-.94.79-1.74 1.41-2.4.62-.66 1.35-1.16 2.19-1.5.86-.36 1.82-.54 2.88-.54 1.42 0 2.65.31 3.69.93 1.04.62 1.84 1.5 2.4 2.64.58 1.12.87 2.45.87 3.99 0 1.16-.16 2.2-.48 3.12-.32.92-.79 1.72-1.41 2.4-.62.66-1.36 1.17-2.22 1.53-.84.34-1.79.51-2.85.51Zm0-1.95c.9 0 1.69-.22 2.37-.66.68-.44 1.2-1.08 1.56-1.92.38-.84.57-1.85.57-3.03 0-1.82-.41-3.21-1.23-4.17-.8-.96-1.89-1.44-3.27-1.44-.92 0-1.72.22-2.4.66-.66.42-1.18 1.05-1.56 1.89-.36.82-.54 1.84-.54 3.06 0 1.8.41 3.19 1.23 4.17.82.96 1.91 1.44 3.27 1.44Zm11.84 1.89c-.4 0-.71-.11-.93-.33-.2-.22-.3-.53-.3-.93v-12.51c0-.4.1-.7.3-.9.2-.22.49-.33.87-.33s.67.11.87.33c.22.2.33.5.33.9v2.43h-.3c.32-1.18.93-2.09 1.83-2.73.9-.64 2.01-.98 3.33-1.02.3-.02.54.05.72.21.18.14.28.39.3.75.02.34-.06.61-.24.81-.18.2-.46.32-.84.36l-.48.06c-1.36.12-2.41.56-3.15 1.32-.72.74-1.08 1.76-1.08 3.06v7.26c0 .4-.11.71-.33.93-.2.22-.5.33-.9.33Zm10.722 0c-.4 0-.7-.11-.9-.33-.2-.22-.3-.53-.3-.93v-19.08c0-.4.1-.7.3-.9.2-.22.5-.33.9-.33.38 0 .68.11.9.33.22.2.33.5.33.9v12.03h.06l6.15-5.88c.28-.26.52-.46.72-.6.22-.14.51-.21.87-.21.32 0 .57.09.75.27.18.16.26.37.24.63 0 .24-.12.5-.36.78l-6.54 6.21v-1.32l7.11 6.69c.28.28.42.55.42.81s-.1.48-.3.66c-.18.18-.42.27-.72.27-.36 0-.65-.07-.87-.21-.22-.16-.49-.39-.81-.69l-6.66-6.15h-.06v5.79c0 .84-.41 1.26-1.23 1.26Zm15-.06c-.4 0-.7-.11-.9-.33-.2-.24-.3-.57-.3-.99v-12.27c0-.42.1-.74.3-.96.2-.22.5-.33.9-.33.38 0 .68.11.9.33.22.22.33.54.33.96v12.27c0 .42-.11.75-.33.99-.2.22-.5.33-.9.33Zm0-18.24c-.5 0-.89-.13-1.17-.39-.28-.28-.42-.65-.42-1.11 0-.48.14-.84.42-1.08.28-.26.67-.39 1.17-.39.52 0 .91.13 1.17.39.28.24.42.6.42 1.08 0 .46-.14.83-.42 1.11-.26.26-.65.39-1.17.39Zm6.972 18.3c-.4 0-.7-.11-.9-.33-.2-.22-.3-.53-.3-.93v-12.51c0-.4.1-.7.3-.9.2-.22.49-.33.87-.33s.67.11.87.33c.22.2.33.5.33.9v2.58l-.33-.36c.42-1.16 1.1-2.03 2.04-2.61.96-.6 2.06-.9 3.3-.9 1.16 0 2.12.21 2.88.63.78.42 1.36 1.06 1.74 1.92.38.84.57 1.91.57 3.21v8.04c0 .4-.11.71-.33.93-.2.22-.49.33-.87.33-.4 0-.71-.11-.93-.33-.2-.22-.3-.53-.3-.93v-7.89c0-1.36-.27-2.35-.81-2.97-.52-.64-1.36-.96-2.52-.96-1.34 0-2.41.42-3.21 1.26-.78.82-1.17 1.92-1.17 3.3v7.26c0 .84-.41 1.26-1.23 1.26Zm22.301 5.46c-1.06 0-2.1-.13-3.12-.39-1-.24-1.91-.63-2.73-1.17-.24-.14-.4-.31-.48-.51-.06-.2-.07-.4-.03-.6.04-.18.13-.35.27-.51.14-.14.3-.23.48-.27.2-.04.4-.01.6.09.88.54 1.72.91 2.52 1.11.8.2 1.59.3 2.37.3 1.42 0 2.49-.38 3.21-1.14.74-.76 1.11-1.86 1.11-3.3v-3.39h.3c-.3 1.16-.94 2.08-1.92 2.76-.96.68-2.09 1.02-3.39 1.02-1.34 0-2.5-.3-3.48-.9-.98-.62-1.74-1.48-2.28-2.58-.52-1.1-.78-2.37-.78-3.81 0-1.08.15-2.06.45-2.94.3-.9.73-1.66 1.29-2.28.58-.64 1.27-1.13 2.07-1.47.82-.36 1.73-.54 2.73-.54 1.32 0 2.46.34 3.42 1.02.96.66 1.58 1.56 1.86 2.7l-.3.36v-2.79c0-.4.1-.7.3-.9.22-.22.52-.33.9-.33.4 0 .7.11.9.33.2.2.3.5.3.9v12.51c0 2.22-.56 3.89-1.68 5.01-1.1 1.14-2.73 1.71-4.89 1.71Zm-.36-7.98c.94 0 1.75-.21 2.43-.63.68-.44 1.2-1.06 1.56-1.86.38-.8.57-1.74.57-2.82 0-1.62-.41-2.9-1.23-3.84-.82-.96-1.93-1.44-3.33-1.44-.92 0-1.72.22-2.4.66-.68.42-1.21 1.03-1.59 1.83-.36.78-.54 1.71-.54 2.79 0 1.62.41 2.91 1.23 3.87.82.96 1.92 1.44 3.3 1.44Zm25.283 2.58c-1.42 0-2.65-.31-3.69-.93-1.04-.62-1.85-1.49-2.43-2.61-.56-1.14-.84-2.48-.84-4.02 0-1.16.16-2.2.48-3.12.32-.94.79-1.74 1.41-2.4.62-.66 1.35-1.16 2.19-1.5.86-.36 1.82-.54 2.88-.54 1.42 0 2.65.31 3.69.93 1.04.62 1.84 1.5 2.4 2.64.58 1.12.87 2.45.87 3.99 0 1.16-.16 2.2-.48 3.12-.32.92-.79 1.72-1.41 2.4-.62.66-1.36 1.17-2.22 1.53-.84.34-1.79.51-2.85.51Zm0-1.95c.9 0 1.69-.22 2.37-.66.68-.44 1.2-1.08 1.56-1.92.38-.84.57-1.85.57-3.03 0-1.82-.41-3.21-1.23-4.17-.8-.96-1.89-1.44-3.27-1.44-.92 0-1.72.22-2.4.66-.66.42-1.18 1.05-1.56 1.89-.36.82-.54 1.84-.54 3.06 0 1.8.41 3.19 1.23 4.17.82.96 1.91 1.44 3.27 1.44Zm11.81 1.89c-.4 0-.7-.11-.9-.33-.2-.22-.3-.53-.3-.93v-12.51c0-.4.1-.7.3-.9.2-.22.49-.33.87-.33s.67.11.87.33c.22.2.33.5.33.9v2.58l-.33-.36c.42-1.16 1.1-2.03 2.04-2.61.96-.6 2.06-.9 3.3-.9 1.16 0 2.12.21 2.88.63.78.42 1.36 1.06 1.74 1.92.38.84.57 1.91.57 3.21v8.04c0 .4-.11.71-.33.93-.2.22-.49.33-.87.33-.4 0-.71-.11-.93-.33-.2-.22-.3-.53-.3-.93v-7.89c0-1.36-.27-2.35-.81-2.97-.52-.64-1.36-.96-2.52-.96-1.34 0-2.41.42-3.21 1.26-.78.82-1.17 1.92-1.17 3.3v7.26c0 .84-.41 1.26-1.23 1.26Zm24.845 0c-.4 0-.7-.11-.9-.33-.2-.22-.3-.53-.3-.93v-12.51c0-.4.1-.7.3-.9.2-.22.49-.33.87-.33s.67.11.87.33c.22.2.33.5.33.9v2.64l-.33-.42c.38-1.12.99-1.98 1.83-2.58.86-.62 1.88-.93 3.06-.93 1.24 0 2.24.3 3 .9.78.58 1.3 1.49 1.56 2.73h-.45c.36-1.12 1-2 1.92-2.64.94-.66 2.03-.99 3.27-.99 1.1 0 2 .21 2.7.63.72.42 1.26 1.06 1.62 1.92.36.84.54 1.91.54 3.21v8.04c0 .4-.11.71-.33.93-.2.22-.5.33-.9.33-.38 0-.68-.11-.9-.33-.2-.22-.3-.53-.3-.93v-7.92c0-1.34-.23-2.32-.69-2.94-.46-.64-1.24-.96-2.34-.96-1.2 0-2.15.42-2.85 1.26-.68.82-1.02 1.94-1.02 3.36v7.2c0 .4-.11.71-.33.93-.2.22-.5.33-.9.33-.38 0-.68-.11-.9-.33-.2-.22-.3-.53-.3-.93v-7.92c0-1.34-.24-2.32-.72-2.94-.46-.64-1.23-.96-2.31-.96-1.2 0-2.15.42-2.85 1.26-.68.82-1.02 1.94-1.02 3.36v7.2c0 .84-.41 1.26-1.23 1.26Zm27.527 5.4c-.3 0-.54-.08-.72-.24-.18-.16-.29-.38-.33-.66-.02-.26.03-.53.15-.81l2.07-4.65v1.05l-5.76-13.38c-.12-.3-.16-.58-.12-.84.04-.26.16-.47.36-.63.2-.16.48-.24.84-.24.32 0 .57.07.75.21.18.14.34.39.48.75l4.92 12.06h-.81l4.98-12.06c.16-.36.33-.61.51-.75s.44-.21.78-.21c.32 0 .56.08.72.24a.9.9 0 0 1 .3.63c.04.24 0 .51-.12.81l-7.68 17.76c-.16.36-.34.61-.54.75-.18.14-.44.21-.78.21Zm25.964-5.34c-1.42 0-2.65-.31-3.69-.93-1.04-.62-1.85-1.49-2.43-2.61-.56-1.14-.84-2.48-.84-4.02 0-1.16.16-2.2.48-3.12.32-.94.79-1.74 1.41-2.4.62-.66 1.35-1.16 2.19-1.5.86-.36 1.82-.54 2.88-.54 1.42 0 2.65.31 3.69.93 1.04.62 1.84 1.5 2.4 2.64.58 1.12.87 2.45.87 3.99 0 1.16-.16 2.2-.48 3.12-.32.92-.79 1.72-1.41 2.4-.62.66-1.36 1.17-2.22 1.53-.84.34-1.79.51-2.85.51Zm0-1.95c.9 0 1.69-.22 2.37-.66.68-.44 1.2-1.08 1.56-1.92.38-.84.57-1.85.57-3.03 0-1.82-.41-3.21-1.23-4.17-.8-.96-1.89-1.44-3.27-1.44-.92 0-1.72.22-2.4.66-.66.42-1.18 1.05-1.56 1.89-.36.82-.54 1.84-.54 3.06 0 1.8.41 3.19 1.23 4.17.82.96 1.91 1.44 3.27 1.44Zm15.445 1.89c-.34 0-.64-.09-.9-.27-.26-.18-.47-.47-.63-.87l-4.47-12.15c-.12-.34-.16-.64-.12-.9.06-.26.19-.46.39-.6.2-.14.45-.21.75-.21s.54.07.72.21c.2.14.36.4.48.78l4.2 12h-.72l4.32-12c.14-.36.31-.61.51-.75.22-.16.5-.24.84-.24.32 0 .59.08.81.24.22.16.39.41.51.75l4.23 12h-.69l4.26-12.06c.14-.36.31-.6.51-.72.2-.14.44-.21.72-.21.32 0 .56.08.72.24a.9.9 0 0 1 .3.63c.02.26-.03.54-.15.84l-4.47 12.15c-.14.38-.35.67-.63.87-.26.18-.56.27-.9.27-.34 0-.64-.09-.9-.27-.26-.2-.46-.49-.6-.87l-4.44-12.18h1.29l-4.41 12.18c-.14.38-.34.67-.6.87-.26.18-.57.27-.93.27Zm21.385 0c-.4 0-.7-.11-.9-.33-.2-.22-.3-.53-.3-.93v-12.51c0-.4.1-.7.3-.9.2-.22.49-.33.87-.33s.67.11.87.33c.22.2.33.5.33.9v2.58l-.33-.36c.42-1.16 1.1-2.03 2.04-2.61.96-.6 2.06-.9 3.3-.9 1.16 0 2.12.21 2.88.63.78.42 1.36 1.06 1.74 1.92.38.84.57 1.91.57 3.21v8.04c0 .4-.11.71-.33.93-.2.22-.49.33-.87.33-.4 0-.71-.11-.93-.33-.2-.22-.3-.53-.3-.93v-7.89c0-1.36-.27-2.35-.81-2.97-.52-.64-1.36-.96-2.52-.96-1.34 0-2.41.42-3.21 1.26-.78.82-1.17 1.92-1.17 3.3v7.26c0 .84-.41 1.26-1.23 1.26Zm28.505.06c-.9 0-1.81-.11-2.73-.33-.9-.22-1.74-.6-2.52-1.14-.2-.14-.34-.3-.42-.48-.08-.2-.11-.39-.09-.57.04-.2.12-.37.24-.51.14-.14.3-.22.48-.24.2-.04.42 0 .66.12.78.48 1.53.82 2.25 1.02.74.18 1.47.27 2.19.27 1.14 0 2-.21 2.58-.63.58-.42.87-.99.87-1.71 0-.56-.19-1-.57-1.32-.38-.34-.98-.6-1.8-.78l-2.73-.6c-1.26-.26-2.2-.71-2.82-1.35-.6-.64-.9-1.47-.9-2.49 0-.9.23-1.67.69-2.31.48-.66 1.15-1.17 2.01-1.53.86-.36 1.86-.54 3-.54.88 0 1.71.12 2.49.36.8.22 1.52.58 2.16 1.08.2.14.33.31.39.51.08.18.09.37.03.57-.04.18-.13.34-.27.48a.9.9 0 0 1-.51.21c-.2.02-.41-.04-.63-.18-.6-.4-1.21-.69-1.83-.87-.62-.2-1.23-.3-1.83-.3-1.12 0-1.97.22-2.55.66-.58.44-.87 1.02-.87 1.74 0 .56.18 1.02.54 1.38.36.36.92.62 1.68.78l2.73.57c1.3.28 2.27.73 2.91 1.35.66.6.99 1.42.99 2.46 0 1.32-.53 2.37-1.59 3.15-1.06.78-2.47 1.17-4.23 1.17Zm15.227 0c-1.14 0-2.1-.2-2.88-.6a4.023 4.023 0 0 1-1.71-1.8c-.38-.8-.57-1.77-.57-2.91v-7.65h-2.01c-.34 0-.6-.08-.78-.24-.18-.18-.27-.42-.27-.72s.09-.53.27-.69c.18-.16.44-.24.78-.24h2.01v-3.45c0-.4.11-.7.33-.9.22-.22.52-.33.9-.33s.67.11.87.33c.22.2.33.5.33.9v3.45h3.78c.34 0 .6.08.78.24.18.16.27.39.27.69 0 .3-.09.54-.27.72-.18.16-.44.24-.78.24h-3.78v7.41c0 1.14.24 2.01.72 2.61.48.58 1.26.87 2.34.87.38 0 .7-.04.96-.12.28-.08.51-.12.69-.12.18-.02.33.04.45.18.12.14.18.38.18.72 0 .24-.05.46-.15.66-.08.2-.23.34-.45.42-.24.08-.56.15-.96.21-.38.08-.73.12-1.05.12Zm9.228 0c-1 0-1.9-.19-2.7-.57-.78-.4-1.4-.94-1.86-1.62-.46-.68-.69-1.44-.69-2.28 0-1.08.27-1.93.81-2.55.56-.62 1.47-1.06 2.73-1.32 1.28-.26 3.02-.39 5.22-.39h1.35v1.59h-1.32c-1.62 0-2.9.08-3.84.24-.92.14-1.57.39-1.95.75-.36.36-.54.87-.54 1.53 0 .82.28 1.49.84 2.01.58.52 1.36.78 2.34.78.8 0 1.5-.19 2.1-.57.62-.38 1.1-.9 1.44-1.56.36-.66.54-1.42.54-2.28v-3.42c0-1.24-.25-2.13-.75-2.67-.5-.56-1.32-.84-2.46-.84-.7 0-1.4.09-2.1.27-.7.18-1.44.47-2.22.87-.28.14-.52.19-.72.15a.91.91 0 0 1-.48-.33 1.06 1.06 0 0 1-.21-.54c-.02-.22.02-.43.12-.63.12-.2.3-.36.54-.48.88-.44 1.75-.76 2.61-.96.86-.2 1.68-.3 2.46-.3 1.26 0 2.3.21 3.12.63.82.4 1.43 1.02 1.83 1.86.4.82.6 1.88.6 3.18v8.13c0 .4-.1.71-.3.93-.18.22-.45.33-.81.33-.38 0-.67-.11-.87-.33-.2-.22-.3-.53-.3-.93v-2.34h.27c-.16.76-.47 1.41-.93 1.95-.44.54-.99.96-1.65 1.26-.66.3-1.4.45-2.22.45Zm12.548-.06c-.4 0-.71-.11-.93-.33-.2-.22-.3-.53-.3-.93v-12.51c0-.4.1-.7.3-.9.2-.22.49-.33.87-.33s.67.11.87.33c.22.2.33.5.33.9v2.43h-.3c.32-1.18.93-2.09 1.83-2.73.9-.64 2.01-.98 3.33-1.02.3-.02.54.05.72.21.18.14.28.39.3.75.02.34-.06.61-.24.81-.18.2-.46.32-.84.36l-.48.06c-1.36.12-2.41.56-3.15 1.32-.72.74-1.08 1.76-1.08 3.06v7.26c0 .4-.11.71-.33.93-.2.22-.5.33-.9.33Zm16.163.06c-1.14 0-2.1-.2-2.88-.6a4.023 4.023 0 0 1-1.71-1.8c-.38-.8-.57-1.77-.57-2.91v-7.65h-2.01c-.34 0-.6-.08-.78-.24-.18-.18-.27-.42-.27-.72s.09-.53.27-.69c.18-.16.44-.24.78-.24h2.01v-3.45c0-.4.11-.7.33-.9.22-.22.52-.33.9-.33s.67.11.87.33c.22.2.33.5.33.9v3.45h3.78c.34 0 .6.08.78.24.18.16.27.39.27.69 0 .3-.09.54-.27.72-.18.16-.44.24-.78.24h-3.78v7.41c0 1.14.24 2.01.72 2.61.48.58 1.26.87 2.34.87.38 0 .7-.04.96-.12.28-.08.51-.12.69-.12.18-.02.33.04.45.18.12.14.18.38.18.72 0 .24-.05.46-.15.66-.08.2-.23.34-.45.42-.24.08-.56.15-.96.21-.38.08-.73.12-1.05.12Zm9.798 0c-1.18 0-2.16-.21-2.94-.63-.76-.44-1.34-1.09-1.74-1.95-.38-.86-.57-1.93-.57-3.21v-8.04c0-.42.1-.73.3-.93.22-.2.52-.3.9-.3.4 0 .7.1.9.3.22.2.33.51.33.93v8.01c0 1.28.26 2.24.78 2.88.54.62 1.38.93 2.52.93 1.24 0 2.25-.42 3.03-1.26.78-.84 1.17-1.94 1.17-3.3v-7.26c0-.42.1-.73.3-.93.22-.2.53-.3.93-.3.38 0 .67.1.87.3.22.2.33.51.33.93v12.51c0 .84-.39 1.26-1.17 1.26-.38 0-.68-.11-.9-.33-.2-.22-.3-.53-.3-.93v-2.73l.39.42c-.4 1.18-1.06 2.08-1.98 2.7-.9.62-1.95.93-3.15.93Zm12.857 5.34c-.4 0-.7-.11-.9-.33-.2-.2-.3-.5-.3-.9v-17.94c0-.4.1-.7.3-.9.2-.22.49-.33.87-.33.4 0 .7.11.9.33.22.2.33.5.33.9v2.85l-.33-.42c.32-1.14.95-2.04 1.89-2.7.96-.68 2.1-1.02 3.42-1.02 1.3 0 2.43.31 3.39.93.98.6 1.73 1.47 2.25 2.61.54 1.12.81 2.46.81 4.02 0 1.54-.27 2.88-.81 4.02-.52 1.12-1.26 1.99-2.22 2.61-.96.62-2.1.93-3.42.93-1.32 0-2.45-.33-3.39-.99a5.057 5.057 0 0 1-1.92-2.7h.36v7.8c0 .4-.11.7-.33.9-.22.22-.52.33-.9.33Zm5.67-7.29c.92 0 1.71-.22 2.37-.66.68-.44 1.2-1.08 1.56-1.92.38-.84.57-1.85.57-3.03 0-1.82-.41-3.21-1.23-4.17-.8-.96-1.89-1.44-3.27-1.44-.9 0-1.69.22-2.37.66-.68.42-1.21 1.05-1.59 1.89-.36.82-.54 1.84-.54 3.06 0 1.8.41 3.19 1.23 4.17.82.96 1.91 1.44 3.27 1.44Z" fill="#FAE100"/><path d="M53.9 221.15a.509.509 0 0 1-.375-.15.604.604 0 0 1-.125-.4v-16.8c0-.183.042-.325.125-.425.083-.1.192-.15.325-.15.15 0 .258.025.325.075.083.05.167.142.25.275l12.05 16.375h-.55v-16.175c0-.183.042-.317.125-.4.1-.1.225-.15.375-.15s.267.05.35.15c.083.083.125.217.125.4v16.8c0 .183-.042.325-.125.425a.337.337 0 0 1-.3.15.572.572 0 0 1-.325-.1.88.88 0 0 1-.25-.25l-12.05-16.375h.525V220.6c0 .167-.042.3-.125.4a.43.43 0 0 1-.35.15Zm22.136.05c-1.1 0-2.059-.258-2.876-.775-.8-.517-1.424-1.242-1.874-2.175-.434-.933-.65-2.033-.65-3.3 0-.95.124-1.808.374-2.575a5.794 5.794 0 0 1 1.075-1.975 4.734 4.734 0 0 1 1.726-1.25c.666-.3 1.408-.45 2.224-.45 1.1 0 2.05.258 2.85.775.817.517 1.442 1.242 1.875 2.175.45.933.675 2.033.675 3.3 0 .95-.124 1.808-.374 2.575a5.559 5.559 0 0 1-1.1 1.975 4.763 4.763 0 0 1-1.7 1.275c-.65.283-1.392.425-2.225.425Zm0-.975c.883 0 1.65-.208 2.3-.625.65-.417 1.15-1.017 1.5-1.8.35-.8.525-1.75.525-2.85 0-1.667-.392-2.958-1.175-3.875-.767-.933-1.817-1.4-3.15-1.4-.884 0-1.65.208-2.3.625-.65.417-1.15 1.017-1.5 1.8-.35.783-.526 1.733-.526 2.85 0 1.667.392 2.967 1.175 3.9.784.917 1.834 1.375 3.15 1.375Zm12.98.975c-.834 0-1.534-.158-2.1-.475a3.144 3.144 0 0 1-1.275-1.4c-.284-.617-.425-1.358-.425-2.225v-7.3H83.19a.607.607 0 0 1-.4-.125.403.403 0 0 1-.15-.325c0-.133.05-.242.15-.325a.607.607 0 0 1 .4-.125h2.025v-3.375c0-.183.041-.317.125-.4.1-.1.233-.15.4-.15.166 0 .291.05.375.15.1.083.15.217.15.4v3.375h3.575c.183 0 .316.042.4.125.1.083.15.192.15.325s-.05.242-.15.325c-.084.083-.217.125-.4.125h-3.575v7.075c0 1.083.216 1.917.65 2.5.433.567 1.158.85 2.175.85.35 0 .633-.033.85-.1.233-.083.425-.125.575-.125.1 0 .183.042.25.125.083.083.125.2.125.35a.623.623 0 0 1-.075.275c-.034.083-.109.142-.225.175a3.52 3.52 0 0 1-.725.175c-.3.067-.584.1-.85.1Zm13.56 0c-.784 0-1.492-.158-2.125-.475-.634-.317-1.134-.742-1.5-1.275a3.219 3.219 0 0 1-.55-1.825c0-.9.216-1.6.65-2.1.45-.517 1.208-.875 2.275-1.075 1.083-.217 2.566-.325 4.45-.325h1.025v.925h-.975c-1.65 0-2.934.075-3.85.225-.9.133-1.534.383-1.9.75-.35.35-.525.85-.525 1.5 0 .8.275 1.458.825 1.975.566.5 1.325.75 2.275.75.766 0 1.433-.183 2-.55a4.055 4.055 0 0 0 1.375-1.525c.333-.65.5-1.383.5-2.2v-2.85c0-1.2-.234-2.075-.7-2.625-.467-.55-1.217-.825-2.25-.825-.667 0-1.309.092-1.925.275-.6.183-1.234.467-1.9.85-.15.083-.284.117-.4.1a.448.448 0 0 1-.25-.125.88.88 0 0 1-.15-.275.7.7 0 0 1 .025-.325c.05-.1.133-.183.25-.25a8.209 8.209 0 0 1 2.125-.925c.733-.2 1.458-.3 2.175-.3.916 0 1.675.158 2.275.475.6.317 1.041.8 1.325 1.45.3.65.45 1.483.45 2.5v7.475c0 .167-.042.3-.125.4-.084.1-.209.15-.375.15a.54.54 0 0 1-.4-.15.6.6 0 0 1-.125-.4v-2.625h.275a4.298 4.298 0 0 1-.85 1.725 4.11 4.11 0 0 1-1.475 1.125c-.567.25-1.209.375-1.925.375Zm13.245-.05a.767.767 0 0 1-.475-.15 1.465 1.465 0 0 1-.35-.5l-4.65-10.875a.842.842 0 0 1-.075-.425.531.531 0 0 1 .15-.325.606.606 0 0 1 .4-.125c.15 0 .258.042.325.125a.898.898 0 0 1 .225.3l4.75 11.45h-.6l4.775-11.45a1.15 1.15 0 0 1 .2-.3c.083-.083.208-.125.375-.125.166 0 .283.042.35.125a.441.441 0 0 1 .125.325.75.75 0 0 1-.075.4l-4.625 10.9c-.084.217-.2.383-.35.5a.771.771 0 0 1-.475.15Zm11.828.05c-.783 0-1.492-.158-2.125-.475-.633-.317-1.133-.742-1.5-1.275a3.217 3.217 0 0 1-.55-1.825c0-.9.217-1.6.65-2.1.45-.517 1.208-.875 2.275-1.075 1.083-.217 2.567-.325 4.45-.325h1.025v.925h-.975c-1.65 0-2.933.075-3.85.225-.9.133-1.533.383-1.9.75-.35.35-.525.85-.525 1.5 0 .8.275 1.458.825 1.975.567.5 1.325.75 2.275.75.767 0 1.433-.183 2-.55a4.046 4.046 0 0 0 1.375-1.525c.333-.65.5-1.383.5-2.2v-2.85c0-1.2-.233-2.075-.7-2.625-.467-.55-1.217-.825-2.25-.825a6.73 6.73 0 0 0-1.925.275 9.31 9.31 0 0 0-1.9.85c-.15.083-.283.117-.4.1a.449.449 0 0 1-.25-.125.868.868 0 0 1-.15-.275.701.701 0 0 1 .025-.325c.05-.1.133-.183.25-.25a8.218 8.218 0 0 1 2.125-.925c.733-.2 1.458-.3 2.175-.3.917 0 1.675.158 2.275.475.6.317 1.042.8 1.325 1.45.3.65.45 1.483.45 2.5v7.475c0 .167-.042.3-.125.4-.083.1-.208.15-.375.15a.54.54 0 0 1-.4-.15.606.606 0 0 1-.125-.4v-2.625h.275a4.298 4.298 0 0 1-.85 1.725 4.11 4.11 0 0 1-1.475 1.125c-.567.25-1.208.375-1.925.375Zm9.717-.125a.54.54 0 0 1-.4-.15.6.6 0 0 1-.125-.4v-11.15c0-.183.041-.317.125-.4.1-.1.233-.15.4-.15.166 0 .291.05.375.15.1.083.15.217.15.4v11.15c0 .167-.042.3-.125.4-.084.1-.217.15-.4.15Zm0-15.475c-.267 0-.484-.075-.65-.225-.15-.167-.225-.383-.225-.65 0-.283.075-.492.225-.625.166-.15.383-.225.65-.225.283 0 .5.075.65.225.15.133.225.342.225.625 0 .267-.075.483-.225.65-.15.15-.367.225-.65.225Zm8.073 15.6c-1.05 0-1.867-.333-2.45-1-.567-.683-.85-1.633-.85-2.85v-13.575c0-.183.041-.317.125-.4.1-.1.233-.15.4-.15.166 0 .291.05.375.15.1.083.15.217.15.4v13.4c0 1.017.2 1.783.6 2.3.4.5.983.75 1.75.75.166 0 .308-.008.425-.025.116-.017.233-.025.35-.025.133 0 .233.025.3.075.083.05.125.15.125.3 0 .183-.05.317-.15.4-.1.083-.267.15-.5.2a2.434 2.434 0 0 1-.35.025c-.1.017-.2.025-.3.025Zm7.234 0c-.783 0-1.491-.158-2.125-.475-.633-.317-1.133-.742-1.5-1.275a3.224 3.224 0 0 1-.55-1.825c0-.9.217-1.6.65-2.1.45-.517 1.209-.875 2.275-1.075 1.084-.217 2.567-.325 4.45-.325h1.025v.925h-.975c-1.65 0-2.933.075-3.85.225-.9.133-1.533.383-1.9.75-.35.35-.525.85-.525 1.5 0 .8.275 1.458.825 1.975.567.5 1.325.75 2.275.75.767 0 1.434-.183 2-.55a4.038 4.038 0 0 0 1.375-1.525c.334-.65.5-1.383.5-2.2v-2.85c0-1.2-.233-2.075-.7-2.625-.466-.55-1.216-.825-2.25-.825-.666 0-1.308.092-1.925.275a9.31 9.31 0 0 0-1.9.85c-.15.083-.283.117-.4.1a.449.449 0 0 1-.25-.125.91.91 0 0 1-.15-.275.715.715 0 0 1 .025-.325c.05-.1.134-.183.25-.25a8.247 8.247 0 0 1 4.3-1.225c.917 0 1.675.158 2.275.475.6.317 1.042.8 1.325 1.45.3.65.45 1.483.45 2.5v7.475a.6.6 0 0 1-.125.4c-.083.1-.208.15-.375.15-.166 0-.3-.05-.4-.15a.606.606 0 0 1-.125-.4v-2.625h.275a4.285 4.285 0 0 1-.85 1.725c-.4.483-.891.858-1.475 1.125-.566.25-1.208.375-1.925.375Zm14.567 0c-1.166 0-2.158-.3-2.975-.9-.8-.617-1.341-1.433-1.625-2.45h.275v2.75c0 .167-.05.3-.15.4-.083.1-.208.15-.375.15-.166 0-.3-.05-.4-.15a.606.606 0 0 1-.125-.4v-16.825c0-.183.042-.317.125-.4.1-.1.234-.15.4-.15.167 0 .292.05.375.15.1.083.15.217.15.4v8.275h-.275c.284-1.033.825-1.85 1.625-2.45.817-.6 1.809-.9 2.975-.9 1.1 0 2.05.258 2.85.775.817.5 1.442 1.217 1.875 2.15.434.933.65 2.042.65 3.325 0 1.267-.225 2.375-.675 3.325-.433.933-1.05 1.658-1.85 2.175-.8.5-1.75.75-2.85.75Zm-.025-.975c.884 0 1.65-.208 2.3-.625.65-.417 1.15-1.017 1.5-1.8.35-.8.525-1.75.525-2.85 0-1.667-.391-2.958-1.175-3.875-.766-.933-1.816-1.4-3.15-1.4-.883 0-1.65.208-2.3.625-.65.417-1.15 1.017-1.5 1.8-.35.783-.525 1.733-.525 2.85 0 1.667.392 2.967 1.175 3.9.784.917 1.834 1.375 3.15 1.375Zm12.159.975c-1.05 0-1.866-.333-2.45-1-.566-.683-.85-1.633-.85-2.85v-13.575c0-.183.042-.317.125-.4.1-.1.234-.15.4-.15.167 0 .292.05.375.15.1.083.15.217.15.4v13.4c0 1.017.2 1.783.6 2.3.4.5.984.75 1.75.75.167 0 .309-.008.425-.025.117-.017.234-.025.35-.025.134 0 .234.025.3.075.084.05.125.15.125.3 0 .183-.05.317-.15.4-.1.083-.266.15-.5.2a2.413 2.413 0 0 1-.35.025c-.1.017-.2.025-.3.025Zm8.488 0c-1.2 0-2.233-.25-3.1-.75a5.183 5.183 0 0 1-2.025-2.125c-.467-.933-.7-2.042-.7-3.325 0-1.267.233-2.367.7-3.3.483-.95 1.142-1.683 1.975-2.2.85-.533 1.825-.8 2.925-.8.783 0 1.475.133 2.075.4.617.267 1.133.65 1.55 1.15.433.5.758 1.108.975 1.825.233.717.35 1.525.35 2.425 0 .217-.05.383-.15.5-.083.1-.217.15-.4.15h-9.325v-.925h9.325l-.425.3c0-1.017-.15-1.883-.45-2.6-.3-.733-.75-1.292-1.35-1.675-.583-.4-1.317-.6-2.2-.6-.967 0-1.792.233-2.475.7-.667.45-1.175 1.067-1.525 1.85-.333.783-.5 1.675-.5 2.675V215c0 1.667.408 2.958 1.225 3.875.833.9 1.992 1.35 3.475 1.35.667 0 1.292-.083 1.875-.25.583-.183 1.158-.5 1.725-.95a.54.54 0 0 1 .35-.15.414.414 0 0 1 .325.075c.1.05.167.125.2.225.05.083.058.183.025.3a.638.638 0 0 1-.25.325c-.517.433-1.15.775-1.9 1.025a7.23 7.23 0 0 1-2.3.375Zm16.588 4.45a.476.476 0 0 1-.35-.125.441.441 0 0 1-.125-.325c0-.133.025-.267.075-.4l1.725-3.975v.5l-5-11.7a.865.865 0 0 1-.075-.425.543.543 0 0 1 .15-.325.608.608 0 0 1 .4-.125c.15 0 .259.042.325.125a.872.872 0 0 1 .225.3l4.75 11.475h-.6l4.775-11.475c.067-.15.134-.258.2-.325.084-.067.209-.1.375-.1.167 0 .284.042.35.125a.437.437 0 0 1 .125.325.73.73 0 0 1-.075.4l-6.65 15.6c-.066.167-.141.283-.225.35-.083.067-.208.1-.375.1Zm15.126-4.45c-1.2 0-2.234-.25-3.1-.75a5.183 5.183 0 0 1-2.025-2.125c-.467-.933-.7-2.042-.7-3.325 0-1.267.233-2.367.7-3.3.483-.95 1.141-1.683 1.975-2.2.85-.533 1.825-.8 2.925-.8.783 0 1.475.133 2.075.4.616.267 1.133.65 1.55 1.15.433.5.758 1.108.975 1.825.233.717.35 1.525.35 2.425 0 .217-.05.383-.15.5-.084.1-.217.15-.4.15h-9.325v-.925h9.325l-.425.3c0-1.017-.15-1.883-.45-2.6-.3-.733-.75-1.292-1.35-1.675-.584-.4-1.317-.6-2.2-.6-.967 0-1.792.233-2.475.7-.667.45-1.175 1.067-1.525 1.85-.334.783-.5 1.675-.5 2.675V215c0 1.667.408 2.958 1.225 3.875.833.9 1.991 1.35 3.475 1.35.666 0 1.291-.083 1.875-.25.583-.183 1.158-.5 1.725-.95.116-.1.233-.15.35-.15a.415.415 0 0 1 .325.075c.1.05.166.125.2.225.05.083.058.183.025.3a.643.643 0 0 1-.25.325c-.517.433-1.15.775-1.9 1.025a7.23 7.23 0 0 1-2.3.375Zm12.335 0c-.833 0-1.533-.158-2.1-.475a3.14 3.14 0 0 1-1.275-1.4c-.283-.617-.425-1.358-.425-2.225v-7.3h-2.025a.606.606 0 0 1-.4-.125.403.403 0 0 1-.15-.325c0-.133.05-.242.15-.325a.606.606 0 0 1 .4-.125h2.025v-3.375c0-.183.042-.317.125-.4.1-.1.233-.15.4-.15s.292.05.375.15c.1.083.15.217.15.4v3.375h3.575c.183 0 .317.042.4.125.1.083.15.192.15.325s-.05.242-.15.325c-.083.083-.217.125-.4.125h-3.575v7.075c0 1.083.217 1.917.65 2.5.433.567 1.158.85 2.175.85.35 0 .633-.033.85-.1.233-.083.425-.125.575-.125.1 0 .183.042.25.125.083.083.125.2.125.35a.623.623 0 0 1-.075.275c-.033.083-.108.142-.225.175a3.522 3.522 0 0 1-.725.175c-.3.067-.583.1-.85.1Z" fill="#fff"/><circle cx="15" cy="26" r="15" fill="#FAE100"/><circle cx="15" cy="198" r="15" fill="#FAE100"/><path stroke="#FAE100" d="M15.5 40v143"/></svg>